<svg id="visual" viewBox="0 0 900 600" width="900" height="600" xmlns="http://www.w3.org/2000/svg" xmlns:xlink="http://www.w3.org/1999/xlink" version="1.1"><rect x="0" y="0" width="900" height="600" fill="#fbfbfe"></rect><defs><linearGradient id="grad1_0" x1="33.3%" y1="0%" x2="100%" y2="100%"><stop offset="20%" stop-color="#fbfbfe" stop-opacity="1"></stop><stop offset="80%" stop-color="#fbfbfe" stop-opacity="1"></stop></linearGradient></defs><defs><linearGradient id="grad2_0" x1="0%" y1="0%" x2="66.7%" y2="100%"><stop offset="20%" stop-color="#fbfbfe" stop-opacity="1"></stop><stop offset="80%" stop-color="#fbfbfe" stop-opacity="1"></stop></linearGradient></defs><g transform="translate(900, 0)"><path d="M0 351.5C-56 333.5 -112 315.4 -166.5 288.4C-221 261.3 -273.9 225.3 -304.4 175.8C-335 126.2 -343.3 63.1 -351.5 0L0 0Z" fill="#b7b7f1"></path></g><g transform="translate(0, 600)"><path d="M0 -351.5C63.1 -343.3 126.2 -335 175.8 -304.4C225.3 -273.9 261.3 -221 288.4 -166.5C315.4 -112 333.5 -56 351.5 0L0 0Z" fill="#b7b7f1"></path></g></svg>