<svg id="visual" viewBox="0 0 600 900" width="600" height="900" xmlns="http://www.w3.org/2000/svg" xmlns:xlink="http://www.w3.org/1999/xlink" version="1.1"><rect width="600" height="900" fill="#b7b7f1"></rect><g><g transform="translate(56 478)"><path d="M91.4 -27.8C105 12.3 93.4 62.4 60.6 87.1C27.9 111.8 -26.1 110.9 -59.5 85.7C-93 60.5 -106 10.9 -92.6 -28.7C-79.3 -68.3 -39.6 -98 -0.4 -97.9C38.9 -97.7 77.7 -67.8 91.4 -27.8Z" stroke="#39398f" fill="none" stroke-width="20"></path></g><g transform="translate(195 129)"><path d="M59.6 -18.7C66.7 2.5 54.7 30.5 34.6 44.4C14.5 58.3 -13.7 57.9 -32.8 44.2C-51.9 30.6 -62 3.6 -55 -17.5C-48.1 -38.5 -24 -53.6 1.1 -53.9C26.3 -54.3 52.5 -40 59.6 -18.7Z" stroke="#39398f" fill="none" stroke-width="20"></path></g><g transform="translate(348 764)"><path d="M64.6 -21.1C74.3 8.8 66.2 44.4 41.8 63.5C17.5 82.6 -23.2 85.2 -50.1 66.3C-76.9 47.4 -90 7 -79.4 -24.2C-68.7 -55.4 -34.4 -77.3 -3.4 -76.1C27.5 -75 55 -50.9 64.6 -21.1Z" stroke="#39398f" fill="none" stroke-width="20"></path></g><g transform="translate(542 349)"><path d="M78.3 -28.7C88.5 6.1 75 45.3 45.7 67.7C16.4 90.2 -28.6 95.8 -58.2 75.4C-87.8 55 -101.9 8.7 -89.7 -28.9C-77.4 -66.5 -38.7 -95.4 -2.3 -94.6C34 -93.8 68 -63.5 78.3 -28.7Z" stroke="#39398f" fill="none" stroke-width="20"></path></g></g></svg>